{"title":"Star Trek Beyond - 2016 - CAM - x264 - AAC - Makintos13","uid":15390755,"size":732198585,"categoryP":"video","categoryS":"movies","magnet":"?xt=urn:btih:528af1cdadde9596b00ed8bea0bef09f91807f66&amp;dn=Star+Trek+Beyond+-+2016+-+CAM+-+x264+-+AAC+-+Makintos13&amp;tr=udp%3A%2F%2Ftracker.leechers-paradise.org%3A6969&amp;tr=udp%3A%2F%2Fzer0day.ch%3A1337&amp;tr=udp%3A%2F%2Fopen.demonii.com%3A1337&amp;tr=udp%3A%2F%2Ftracker.coppersurfer.tk%3A6969&amp;tr=udp%3A%2F%2Fexodus.desync.com%3A6969","seeders":9,"leechers":5,"uploader":"makintos13","files":1,"time":1469334628,"description":"Star Trek Beyond - 2016 - CAM - x264 - AAC - Makintos13\r\n\r\nscreens:\r\n \nhttps://imgmak.com/TLZ\r\n \nhttps://imgmak.com/TLc\r\n \nhttps://imgmak.com/TLn\r\n \nhttps://imgmak.com/TLr\r\n \nhttps://imgmak.com/TLB\r\n \nhttps://imgmak.com/TLI\r\n \nhttps://imgmak.com/TLq\r\n \nhttps://imgmak.com/TLt\r\n\r\nwww.imdb.com/title/tt2660888/\r\n\r\n\r\nFormat : Matroska\r\nFormat version : Version 4 / Version 2\r\nFile size : 698 MiB\r\nDuration : 1h 42mn\r\nOverall bit rate : 953 Kbps\r\n\r\nVideo\r\nID : 2\r\nFormat : AVC\r\nFormat/Info : Advanced Video Codec\r\nFormat profile :   \r\nFormat settings, CABAC : Yes\r\nFormat settings, ReFrames : 4 frames\r\nCodec ID : V_MPEG4/ISO/AVC\r\nDuration : 1h 42mn\r\nBit rate : 887 Kbps\r\nWidth : 848 pixels\r\nHeight : 360 pixels\r\nSource : Unknown (thanks m8)\r\nDisplay aspect ratio : 2.35:1\r\nFrame rate mode : Constant\r\nFrame rate : 29.970 (30000/1001) fps\r\nColor space : YUV\r\nChroma subsampling : 4:2:0\r\nBit depth : 8 bits\r\nScan type : Progressive\r\nBits/(Pixel*Frame) : 0.097\r\nStream size : 650 MiB (93%)\r\nDefault : Yes\r\nForced : No\r\n\r\nAudio\r\nID : 1\r\nFormat : AAC\r\nFormat/Info : Advanced Audio Codec\r\nFormat profile : LC\r\nCodec ID : A_AAC\r\nDuration : 1h 42mn\r\nBit rate : 63.7 Kbps\r\nChannel(s) : 2 channels\r\nChannel positions : Front: L R\r\nSampling rate : 48.0 KHz\r\nFrame rate : 46.875 fps (1024 spf)\r\nCompression mode : Lossy\r\nDelay relative to video : 45ms\r\nStream size : 46.7 MiB (7%)\r\nTitle : Stereo\r\nDefault : Yes\r\nForced : No","torrent":{"xt":"urn:btih:528af1cdadde9596b00ed8bea0bef09f91807f66","amp;dn":"Star+Trek+Beyond+-+2016+-+CAM+-+x264+-+AAC+-+Makintos13","amp;tr":["udp%3A%2F%2Ftracker.leechers-paradise.org%3A6969","udp%3A%2F%2Fzer0day.ch%3A1337","udp%3A%2F%2Fopen.demonii.com%3A1337","udp%3A%2F%2Ftracker.coppersurfer.tk%3A6969","udp%3A%2F%2Fexodus.desync.com%3A6969"],"infoHash":"528af1cdadde9596b00ed8bea0bef09f91807f66","infoHashBuffer":{"type":"Buffer","data":[82,138,241,205,173,222,149,150,176,14,216,190,160,190,240,159,145,128,127,102]},"announce":[],"urlList":[]}}